<svg xmlns="http://www.w3.org/2000/svg" shape-rendering="geometricPrecision" text-rendering="geometricPrecision" image-rendering="optimizeQuality" fill-rule="evenodd" clip-rule="evenodd" viewBox="0 0 512 431.81"><path fill-rule="nonzero" d="M48.64 0h330.24c13.37 0 25.51 5.52 34.3 14.31l.81.89c8.35 8.75 13.51 20.61 13.51 33.45v118.63c-10.81 6.27-19.42 13.75-26.93 21.77l-72.08 63.59c-1.1 1.79-3.77 1.94-5.21.49l-59.5-57.09-22.3 69.13c-5.81 2.41-10.08 5.7-11.97 10.18-5.67-2.49-11.92-3.51-18.28-3.27l-73.36-108.13-111.71 93.68v78.01c0 6.13 2.57 11.74 6.65 15.82 4.1 4.1 9.75 6.67 15.83 6.67h78.26a57.425 57.425 0 0 0-1.08 26.16H48.64c-13.29 0-25.5-5.5-34.33-14.34C5.52 361.17 0 349 0 335.64V48.65c0-13.38 5.47-25.57 14.28-34.37l.9-.82C23.93 5.14 35.73 0 48.64 0zm232.92 332.23c-9.31 2.35-18.78-3.28-21.14-12.57-2.36-9.31 3.27-18.78 12.57-21.14l6.81-1.49c25.97-4.85 49.11 1.14 68.48 18.47 8.81 7.88 16.64 18.13 23.44 30.77 3.42-9.57 7.42-18.44 11.85-26.53 9.71-17.71 21.69-31.97 34.69-42.42-1.6-4.78-2.47-9.88-2.47-15.19 0-26.54 21.55-48.09 48.11-48.09 26.55 0 48.1 21.55 48.1 48.09 0 26.56-21.55 48.11-48.1 48.11-8.59 0-16.64-2.25-23.61-6.2-9.57 7.64-18.67 18.52-26.28 32.41-11.08 20.21-18.82 46.47-20.43 78.1-.05 8.12-5.81 15.37-14.1 16.95-9.41 1.79-18.52-4.38-20.32-13.79-1.21-6.32-2.46-11.91-3.7-16.75-7.32-28.54-17.63-48.31-30.28-59.64-10.76-9.63-23.95-12.93-38.95-10.16l-4.67 1.07zm-57.62-12.45c10.38 0 18.76 8.41 18.76 18.78 0 10.36-8.38 18.79-18.76 18.79-10.36 0-18.77-8.43-18.77-18.79 0-10.37 8.41-18.78 18.77-18.78zm-39.25 39.96c10.36 0 18.79 8.39 18.79 18.75 0 10.38-8.43 18.77-18.79 18.77-10.37 0-18.78-8.39-18.78-18.77 0-10.36 8.41-18.75 18.78-18.75zM26.16 222.86c28.97-26.11 75.32-62.62 104.59-87.22 4.78-4.13 11.88-4.04 16.58-.04.94.8 1.65 1.75 2.44 2.7l68.19 103.41 24.36-74.18c1.96-10.36 14.19-13.79 21.6-6.91l61.55 58.93 75.87-70.6V48.65c0-5.82-2.32-11.25-6.07-15.29l-.59-.55c-4.07-4.08-9.68-6.65-15.8-6.65H48.64c-5.92 0-11.31 2.3-15.29 6.01l-.57.61c-4.08 4.07-6.62 9.7-6.62 15.87v174.21zm236.14-163c10.8 0 20.62 4.39 27.72 11.49 7.09 7.09 11.49 16.89 11.49 27.71 0 10.81-4.4 20.62-11.49 27.72-7.1 7.1-16.92 11.49-27.72 11.49-10.82 0-20.62-4.39-27.72-11.49-7.09-7.1-11.49-16.91-11.49-27.72 0-10.82 4.4-20.62 11.49-27.71 7.1-7.1 16.9-11.49 27.72-11.49zm11.96 27.24a16.876 16.876 0 0 0-11.96-4.94 16.885 16.885 0 0 0-16.91 16.9c0 4.68 1.9 8.91 4.95 11.96 3.05 3.06 7.29 4.95 11.96 4.95 4.67 0 8.91-1.89 11.96-4.95 3.05-3.05 4.94-7.28 4.94-11.96 0-4.67-1.89-8.91-4.94-11.96z"/></svg>